<svg width="41" height="37" viewBox="0 0 41 37" fill="none" xmlns="http://www.w3.org/2000/svg">
<path fill-rule="evenodd" clip-rule="evenodd" d="M8.47884 0.165652C5.99677 0.578742 7.66749 2.2554 9.71987 2.547C11.4382 2.79 14.7317 2.79 21.8198 2.7657C30.4591 2.7414 34.1582 2.8386 34.7072 3.0816C36.0675 3.7134 36.6643 6.1434 37.0461 12.7286C37.1893 15.0613 37.4756 18.5605 37.6904 20.5044C38.3587 26.7494 37.7382 27.3569 29.8864 27.6728C26.8554 27.7943 22.9176 28.0373 21.1515 28.2074C12.8941 29.0093 7.76286 28.8634 4.89902 27.6971C2.51242 26.7251 2.6318 25.9475 2.5602 24.3194C2.39314 21.1605 2.46472 14.7211 2.77495 8.8649C3.03747 3.9564 3.34773 2.9844 4.89902 2.2554C5.85357 1.818 5.51954 1.3077 4.32624 1.3563C2.53631 1.4535 1.15212 2.061 0.889605 4.9041C0.55548 8.4032 -1.56863 27.6242 2.24987 29.2523C4.75573 30.3215 9.12322 31.3663 10.8415 31.3663C12.0348 31.3663 11.9872 32.7271 10.7938 33.0916C8.04935 33.8935 9.9824 35.8375 13.6099 35.9833C20.9606 36.2262 31.7002 35.6188 31.7957 34.9141C31.8912 34.2094 30.3399 32.6056 29.5284 32.6056C29.2659 32.6056 29.0987 32.2897 29.0987 31.828C29.0987 31.1719 29.0988 30.2485 29.8386 30.2485C33.0128 30.2485 34.7072 30.1027 35.6618 29.884C40.3156 28.8634 40.5066 25.6559 40.4589 23.7849C40.2918 16.1305 38.8837 8.8163 38.8837 7.0911C38.8599 4.1022 37.1416 1.1619 33.4662 0.627342C32.0344 0.189952 10.937 -0.247448 8.47884 0.165652ZM20.9367 15.037C20.6503 14.7211 17.882 11.5865 17.1183 10.7846C16.1636 9.7883 15.1851 10.1042 13.1326 12.0238C12.0825 13.0201 10.4359 14.5024 9.45735 15.3529C6.06846 18.2689 5.80584 19.581 8.59817 19.581C9.55281 19.581 10.0063 19.2408 12.8463 16.2763C16.5216 12.4369 16.1875 12.4612 19.3855 15.6202C21.5334 17.7342 21.2709 17.7586 24.7553 14.9884C27.7623 12.1454 29.4807 10.25 31.6524 8.0387C33.8003 5.8518 30.5068 4.8555 28.7647 6.362C26.7122 8.0873 20.9606 15.0127 20.9367 15.037ZM28.6692 13.8949C28.2397 15.0127 28.4544 22.4727 28.9318 22.9344C30.1012 24.1251 30.8172 21.5736 30.7456 16.5193C30.6979 13.7248 29.3614 12.0482 28.6692 13.8949ZM14.851 16.9324C14.1112 18.925 14.7317 24.3681 16.2352 24.1008C17.7387 23.8335 16.7125 17.8314 16.3784 16.9567C16.1636 16.3249 15.0896 16.3006 14.851 16.9324ZM24.5643 17.4912C24.1586 18.0015 23.7529 21.768 24.0155 22.7886C24.4689 24.611 26.3542 23.8092 26.3542 21.7923C26.3542 18.4147 25.4951 16.3492 24.5643 17.4912ZM10.9848 20.0913C10.6268 20.4558 10.7699 23.1774 11.1995 23.7605C11.9632 24.8297 12.6314 24.1494 12.6314 22.2783C12.6076 20.3343 11.7961 19.2409 10.9848 20.0913ZM19.2184 20.0913C18.5979 20.7231 19.0274 23.3231 19.7912 23.6876C21.0083 24.2465 21.4141 22.7157 20.6742 20.2857C20.5549 19.8483 19.5764 19.7268 19.2184 20.0913ZM25.3758 30.6617C26.3305 30.929 25.9725 31.8037 26.0679 32.6056L15.0419 32.8C15.0419 32.7271 15.2329 30.8074 15.2329 30.9289C15.9966 30.9046 22.9892 30.6131 23.9439 30.5402C24.3257 30.4916 24.994 30.5645 25.3758 30.6617Z" fill="#006B99"/>
</svg>
