<svg width="36" height="40" viewBox="0 0 36 40" fill="none" xmlns="http://www.w3.org/2000/svg">
<path fill-rule="evenodd" clip-rule="evenodd" d="M9.71594 0.382896C3.29852 1.61662 4.43186e-05 6.50586 4.43186e-05 14.8906C-0.0223976 23.481 8.48188 28.7586 17.233 25.5829L18.8486 24.9889C20.1725 26.4054 20.3969 26.4054 18.9832 27.2735C17.8613 27.9589 17.9734 28.6672 18.6915 28.9413C19.6563 29.3069 25.5129 35.0414 26.2983 36.4351C29.1929 41.5756 36.4181 39.7707 35.9245 35.7497C35.7001 33.9219 34.3313 31.7972 32.7157 30.2893C30.9206 28.5987 29.9109 27.2278 28.587 24.669C27.308 22.1787 26.1637 21.6304 24.5032 22.6585C23.7851 23.0926 23.7178 23.1154 23.3363 22.7499C22.551 22.0416 22.5959 21.5619 23.5607 20.0768C27.2407 14.3194 27.4426 9.29316 24.189 5.29496C19.6563 -0.279655 15.7745 1.73086 18.4222 3.46716C24.8622 7.67096 24.5257 16.2157 17.6594 22.6585C13.8448 26.2454 6.1707 24.3263 4.1961 19.3C1.07711 11.3037 6.21549 0.748446 14.5403 2.43906C17.4125 3.19306 18.5569 -1.30776 9.71594 0.382896ZM8.81846 6.07176C7.8536 6.89426 8.48188 7.60246 10.2769 6.34586C11.5335 5.47776 12.1395 5.31776 13.2839 5.59196C14.7872 5.93466 15.7071 5.54626 15.236 4.76946C15.0788 4.49536 11.7803 3.53576 8.81846 6.07176ZM17.8164 5.77476C16.6047 5.70616 16.2905 6.39156 17.1208 7.28266C18.1529 8.40206 20.2174 8.58486 20.1051 7.55676C20.0379 6.84856 18.7363 5.82046 17.8164 5.77476ZM25.6252 24.9203C25.8046 25.6743 27.5773 28.3245 28.5198 29.3069C29.6641 30.4721 30.1578 31.2489 31.6386 32.8938C34.6455 36.2523 31.0553 39.5879 28.228 35.3841C24.6602 30.0837 21.3392 28.4159 21.3841 27.799C21.4515 27.0222 25.468 24.2806 25.6252 24.9203Z" fill="#006B99"/>
</svg>
