<svg display="none"
    xmlns="http://www.w3.org/2000/svg">
    <symbol viewBox="0 0 32 32" id="medium-icon">
        <path d="M9 23.5C12.866 23.5 16 20.1421 16 16C16 11.8579 12.866 8.5 9 8.5C5.13401 8.5 2 11.8579 2 16C2 20.1421 5.13401 23.5 9 23.5Z" stroke="white" stroke-width="2" stroke-linecap="round" stroke-linejoin="round"/>
        <path d="M23 23C24.6569 23 26 19.866 26 16C26 12.134 24.6569 9 23 9C21.3431 9 20 12.134 20 16C20 19.866 21.3431 23 23 23Z" stroke="white" stroke-width="2" stroke-linecap="round" stroke-linejoin="round"/>
        <path d="M30 9V23" stroke="white" stroke-width="2" stroke-linecap="round" stroke-linejoin="round"/>
    </symbol>

    <symbol viewBox="0 0 32 32" id="linkedin-icon">
        <path d="M26 5H6C5.44772 5 5 5.44772 5 6V26C5 26.5523 5.44772 27 6 27H26C26.5523 27 27 26.5523 27 26V6C27 5.44772 26.5523 5 26 5Z" stroke="white" stroke-width="2" stroke-linecap="round" stroke-linejoin="round"/>
        <path d="M15 14V22" stroke="white" stroke-width="2" stroke-linecap="round" stroke-linejoin="round"/>
        <path d="M11 14V22" stroke="white" stroke-width="2" stroke-linecap="round" stroke-linejoin="round"/>
        <path d="M15 17.5C15 16.5717 15.3687 15.6815 16.0251 15.0251C16.6815 14.3687 17.5717 14 18.5 14C19.4283 14 20.3185 14.3687 20.9749 15.0251C21.6313 15.6815 22 16.5717 22 17.5V22" stroke="white" stroke-width="2" stroke-linecap="round" stroke-linejoin="round"/>
        <path d="M11 11.5C11.8284 11.5 12.5 10.8284 12.5 10C12.5 9.17157 11.8284 8.5 11 8.5C10.1716 8.5 9.5 9.17157 9.5 10C9.5 10.8284 10.1716 11.5 11 11.5Z"/>
    </symbol>

    <symbol viewBox="0 0 32 32" id="twitter-icon">
        <path d="M6 25C6 25 11 24 12 21C12 21 4 18 6 7C6 7 10 12 16 13V11.0004C16.0001 9.85156 16.3957 8.73783 17.1204 7.84641C17.845 6.95498 18.8545 6.34023 19.9791 6.10551C21.1036 5.87078 22.2747 6.0304 23.2954 6.55752C24.3162 7.08464 25.1243 7.94712 25.5839 8.99996L30 9L26 13C26 20 21 27 12 27C8 27 6 25 6 25Z" stroke="white" stroke-width="2" stroke-linecap="round" stroke-linejoin="round"/>
    </symbol>

    <symbol viewBox="0 0 32 32" id="facebook-icon">
        <path fill-rule="evenodd" clip-rule="evenodd" d="M0 31.2C0 13.9687 13.9687 0 31.2 0H124.8C142.031 0 156 13.9687 156 31.2V124.8C156 142.031 142.031 156 124.8 156H31.2C13.9687 156 0 142.031 0 124.8V31.2ZM31.2 15.6C22.5844 15.6 15.6 22.5844 15.6 31.2V124.8C15.6 133.416 22.5844 140.4 31.2 140.4H78V85.8H70.2C65.8921 85.8 62.4 82.3079 62.4 78C62.4 73.6921 65.8921 70.2 70.2 70.2H78V58.5C78 43.4226 90.2226 31.2 105.3 31.2H109.98C114.288 31.2 117.78 34.6922 117.78 39C117.78 43.3078 114.288 46.8 109.98 46.8H105.3C98.8385 46.8 93.6 52.0382 93.6 58.5V70.2H109.98C114.288 70.2 117.78 73.6921 117.78 78C117.78 82.3079 114.288 85.8 109.98 85.8H93.6V140.4H124.8C133.416 140.4 140.4 133.416 140.4 124.8V31.2C140.4 22.5844 133.416 15.6 124.8 15.6H31.2Z"/>
    </symbol>

    <symbol viewBox="0 0 32 32" id="instagram-icon">
        <path d="M16 21C18.7614 21 21 18.7614 21 16C21 13.2386 18.7614 11 16 11C13.2386 11 11 13.2386 11 16C11 18.7614 13.2386 21 16 21Z" stroke="white" stroke-width="2" stroke-miterlimit="10"/>
        <path d="M21.5 4.5H10.5C7.18629 4.5 4.5 7.18629 4.5 10.5V21.5C4.5 24.8137 7.18629 27.5 10.5 27.5H21.5C24.8137 27.5 27.5 24.8137 27.5 21.5V10.5C27.5 7.18629 24.8137 4.5 21.5 4.5Z" stroke="white" stroke-width="2" stroke-linecap="round" stroke-linejoin="round"/>
        <path d="M22.5 11C23.3284 11 24 10.3284 24 9.5C24 8.67157 23.3284 8 22.5 8C21.6716 8 21 8.67157 21 9.5C21 10.3284 21.6716 11 22.5 11Z"/>
    </symbol>

    <symbol width="33" height="18" viewBox="0 0 33 18" id="burger-icon">
        <line x1="0" y1="2" x2="33" y2="2" stroke="#000" stroke-widht="3"/>
        <line x1="0" y1="9" x2="33" y2="9" stroke="#000" stroke-widht="3"/>
        <line x1="0" y1="16" x2="33" y2="16" stroke="#000" stroke-widht="3"/>
    </symbol>

    <symbol width="25" height="22" viewBox="0 0 25 22" id="cross-icon">
        <line x1="0" y1="0" x2="25" y2="22" stroke="#000" stroke-widht="3"/>
        <line x1="0" y1="22" x2="25" y2="0" stroke="#000" stroke-widht="3"/>
    </symbol>
</svg>

